<mxfile host="app.diagrams.net" modified="2023-12-10T13:46:40.996Z" agent="Mozilla/5.0 (Windows NT 10.0; Win64; x64) AppleWebKit/537.36 (KHTML, like Gecko) Chrome/120.0.0.0 Safari/537.36" etag="20pJ7Hlt3abIQvdUF9mG" version="22.1.7" type="device">
  <diagram name="Страница — 1" id="1ygQtcs8dZa-fGLHHF0l">
    <mxGraphModel dx="979" dy="574" grid="1" gridSize="10" guides="1" tooltips="1" connect="1" arrows="1" fold="1" page="1" pageScale="1" pageWidth="827" pageHeight="1169" math="0" shadow="0">
      <root>
        <mxCell id="0" />
        <mxCell id="1" parent="0" />
        <mxCell id="gBljc3YQMrmWl5VxX0Mv-1" value="Actor" style="shape=umlActor;verticalLabelPosition=bottom;verticalAlign=top;html=1;" vertex="1" parent="1">
          <mxGeometry x="120" y="150" width="30" height="60" as="geometry" />
        </mxCell>
        <mxCell id="gBljc3YQMrmWl5VxX0Mv-2" value="Пользователь&lt;br&gt;" style="text;html=1;align=center;verticalAlign=middle;resizable=0;points=[];autosize=1;strokeColor=none;fillColor=none;" vertex="1" parent="1">
          <mxGeometry x="20" y="170" width="100" height="30" as="geometry" />
        </mxCell>
        <mxCell id="gBljc3YQMrmWl5VxX0Mv-4" value="Actor" style="shape=umlActor;verticalLabelPosition=bottom;verticalAlign=top;html=1;" vertex="1" parent="1">
          <mxGeometry x="600" y="150" width="30" height="60" as="geometry" />
        </mxCell>
        <mxCell id="gBljc3YQMrmWl5VxX0Mv-5" value="Магазин" style="text;html=1;align=center;verticalAlign=middle;resizable=0;points=[];autosize=1;strokeColor=none;fillColor=none;" vertex="1" parent="1">
          <mxGeometry x="660" y="165" width="70" height="30" as="geometry" />
        </mxCell>
        <mxCell id="gBljc3YQMrmWl5VxX0Mv-6" value="Фильмы" style="html=1;whiteSpace=wrap;" vertex="1" parent="1">
          <mxGeometry x="320" y="70" width="110" height="50" as="geometry" />
        </mxCell>
        <mxCell id="gBljc3YQMrmWl5VxX0Mv-13" value="" style="endArrow=none;html=1;rounded=0;" edge="1" parent="1">
          <mxGeometry width="50" height="50" relative="1" as="geometry">
            <mxPoint x="180" y="190" as="sourcePoint" />
            <mxPoint x="310" y="100" as="targetPoint" />
          </mxGeometry>
        </mxCell>
        <mxCell id="gBljc3YQMrmWl5VxX0Mv-14" value="взять в прокат&lt;br&gt;/&lt;br&gt;вернуть фильм" style="text;html=1;align=center;verticalAlign=middle;resizable=0;points=[];autosize=1;strokeColor=none;fillColor=none;" vertex="1" parent="1">
          <mxGeometry x="175" y="73" width="110" height="60" as="geometry" />
        </mxCell>
        <mxCell id="gBljc3YQMrmWl5VxX0Mv-15" value="" style="endArrow=none;html=1;rounded=0;" edge="1" parent="1">
          <mxGeometry width="50" height="50" relative="1" as="geometry">
            <mxPoint x="580" y="180" as="sourcePoint" />
            <mxPoint x="440" y="100" as="targetPoint" />
          </mxGeometry>
        </mxCell>
        <mxCell id="gBljc3YQMrmWl5VxX0Mv-16" value="предостваляет" style="text;html=1;align=center;verticalAlign=middle;resizable=0;points=[];autosize=1;strokeColor=none;fillColor=none;" vertex="1" parent="1">
          <mxGeometry x="475" y="88" width="110" height="30" as="geometry" />
        </mxCell>
        <mxCell id="gBljc3YQMrmWl5VxX0Mv-17" value="товары в наличии" style="html=1;whiteSpace=wrap;" vertex="1" parent="1">
          <mxGeometry x="320" y="155" width="110" height="50" as="geometry" />
        </mxCell>
        <mxCell id="gBljc3YQMrmWl5VxX0Mv-18" value="" style="endArrow=none;html=1;rounded=0;" edge="1" parent="1">
          <mxGeometry width="50" height="50" relative="1" as="geometry">
            <mxPoint x="180" y="190" as="sourcePoint" />
            <mxPoint x="300" y="190" as="targetPoint" />
          </mxGeometry>
        </mxCell>
        <mxCell id="gBljc3YQMrmWl5VxX0Mv-19" value="просматривает" style="text;html=1;align=center;verticalAlign=middle;resizable=0;points=[];autosize=1;strokeColor=none;fillColor=none;" vertex="1" parent="1">
          <mxGeometry x="175" y="188" width="110" height="30" as="geometry" />
        </mxCell>
        <mxCell id="gBljc3YQMrmWl5VxX0Mv-20" value="" style="endArrow=none;html=1;rounded=0;" edge="1" parent="1">
          <mxGeometry width="50" height="50" relative="1" as="geometry">
            <mxPoint x="580" y="195" as="sourcePoint" />
            <mxPoint x="440" y="195" as="targetPoint" />
          </mxGeometry>
        </mxCell>
        <mxCell id="gBljc3YQMrmWl5VxX0Mv-21" value="Пополняет информацию" style="text;html=1;align=center;verticalAlign=middle;resizable=0;points=[];autosize=1;strokeColor=none;fillColor=none;" vertex="1" parent="1">
          <mxGeometry x="440" y="200" width="160" height="30" as="geometry" />
        </mxCell>
      </root>
    </mxGraphModel>
  </diagram>
</mxfile>
